<?xml version="1.0" encoding="UTF-8"?>
<svg id="Layer_1" data-name="Layer 1" xmlns="http://www.w3.org/2000/svg" viewBox="0 0 1000 1000">
  <defs>
    <style>
      .cls-1 {
        fill: #fff;
        stroke-width: 0px;
      }
    </style>
  </defs>
  <path class="cls-1" d="m225.26,917.89c-71.58-51.58-109.47-89.47-145.27-144.21C28.42,693.68,0,596.84,0,501.05,0,224.21,223.16,0,500,0s500,224.21,500,500c0,113.69-38.95,227.37-107.37,311.58-28.42,35.79-52.63,56.84-117.89,106.32v-292.63h49.47v200c36.84-43.16,54.74-69.47,72.63-101.05,36.84-65.26,56.84-146.32,56.84-224.21,0-252.63-203.16-457.89-453.68-457.89S46.31,247.37,46.31,503.16c0,116.84,41.05,220,128.42,322.1v-200h50.53v292.63Zm98.95,50.53c-9.47-2.1-31.58-12.63-49.48-22.1v-321.05h49.48v343.16Zm301.05-705.26l-125.26-96.84-125.26,96.84-27.37-35.79,152.63-118.95,152.63,118.95-27.37,35.79Zm-201.05,731.58c-17.9-3.16-18.95-3.16-25.26-5.26-5.26-1.05-7.37-1.05-24.21-5.26V300h49.47v694.74Zm100,4.21c-7.37,1.05-9.47,1.05-20,1.05-15.79,0-21.05,0-29.47-1.05V300h49.47v698.95Zm100-15.79c-15.79,5.26-29.48,8.42-49.48,12.63V300h49.48v683.16Zm101.05-36.84c-15.79,7.37-25.26,11.58-50.53,23.16v-344.21h50.53v321.05Z"/>
</svg>